<svg width="438px" height="419px" viewBox="0 0 438 419" version="1.1" xmlns="http://www.w3.org/2000/svg" xmlns:xlink="http://www.w3.org/1999/xlink">
    <g id="Page-1" stroke="none" stroke-width="1" fill="none" fill-rule="evenodd">
        <g id="Desktop-HD" transform="translate(-460.000000, -258.000000)">
            <g id="blob-shape(1)" transform="translate(460.000000, 248.000000)">
                <rect id="Rectangle" x="0" y="0" width="439" height="439"></rect>
                <path d="M316,13.2 C349.5,42.6 364.2,93.1 370.5,143 C376.9,192.9 374.9,242.2 356.9,290.7 C338.9,339.2 305,386.9 266.8,383.8 C228.6,380.7 186.2,326.8 154.1,293.8 C122,260.8 100.2,248.7 81.1,228.6 C62,208.6 45.7,180.7 38.1,142.2 C30.4,103.8 31.6,54.8 56.4,23.9 C81.2,-7.1 129.6,-20 179.9,-22.3 C230.3,-24.6 282.6,-16.3 316,13.2 Z" id="Path" fill="#232429" fill-rule="nonzero" transform="translate(203.864400, 180.640791) rotate(270.000000) translate(-203.864400, -180.640791) "></path>
                <path d="M297.091842,137.621811 C341.791842,173.821811 400.891842,203.921811 414.791842,248.021811 C428.691842,292.121811 397.391842,350.121811 352.691842,384.921811 C308.091842,419.721811 250.091842,431.421811 203.191842,420.321811 C156.291842,409.321811 120.391842,375.421811 103.591842,340.621811 C86.7918419,305.821811 88.8918419,269.921811 86.2918419,231.521811 C83.7918419,193.121811 76.3918419,152.121811 93.1918419,115.921811 C110.091842,79.7218113 151.091842,48.4218113 186.691842,53.8218113 C222.291842,59.3218113 252.391842,101.421811 297.091842,137.621811 Z" id="Path" fill="#FF6A66" fill-rule="nonzero" transform="translate(250.313520, 238.791522) rotate(-110.000000) translate(-250.313520, -238.791522) "></path>
                <text id="W" font-family="SFProDisplay-Heavy, SF Pro Display" font-size="350" font-weight="600" fill="#FFFFFF">
                    <tspan x="43" y="344">W</tspan>
                </text>
            </g>
        </g>
    </g>
</svg>
