<svg width="316" height="231">
    <path fill="#f9f3ea" fill-rule="evenodd" d="M242.23 35L316 106.652h-42.154V231H42v-53.746l31.615 30.775 41.183-40.257h95.817v-61.12h-42.153L242.23 35zM274 0v53.746L242.385 22.97l-41.183 40.257h-95.817v61.12h42.153L73.77 196 0 124.348h42.154V0H274z"/>
</svg>

<svg width="296px" height="231px" viewBox="0 0 296 231" version="1.1" xmlns="http://www.w3.org/2000/svg" xmlns:xlink="http://www.w3.org/1999/xlink">
    <g id="Page-1" stroke="none" stroke-width="1" fill="none" fill-rule="evenodd">
        <path id="Combined-Shape" fill="#f9f3ea" d="M227.353587,49.737234 C230.069843,47.0989198 234.391696,47.0989198 237.107951,49.737234 L237.107951,49.737234 L293.623602,104.6312 C294.980668,105.949326 295.74642,107.760618 295.74642,109.652464 C295.74642,113.518458 292.612413,116.652464 288.74642,116.652464 L288.74642,116.652464 L263.846154,116.652464 L263.846154,224 C263.846154,227.865993 260.712147,231 256.846154,231 L256.846154,231 L39,231 C35.1340068,231 32,227.865993 32,224 L32,224 L32,177.254365 L58.7225298,203.265881 C61.4442326,205.915167 65.7820846,205.910602 68.4982065,203.255595 L68.4982065,203.255595 L102.757977,169.766696 C104.065858,168.488244 105.822156,167.77244 107.651088,167.77244 L107.651088,167.77244 L193.615385,167.77244 C197.481378,167.77244 200.615385,164.638433 200.615385,160.77244 L200.615385,160.77244 L200.615385,116.652464 L175.715119,116.652464 C173.823272,116.652464 172.01198,115.886712 170.693854,114.529646 C168.000261,111.756479 168.064769,107.324793 170.837937,104.6312 L170.837937,104.6312 Z M257,0 C260.865993,0 264,3.13400675 264,7 L264,7 L264,53.7456349 L237.27747,27.7341191 C234.555767,25.0848335 230.217915,25.0893975 227.501793,27.7444046 L227.501793,27.7444046 L193.242023,61.233304 C191.934142,62.5117565 190.177844,63.2275604 188.348912,63.2275604 L188.348912,63.2275604 L102.384615,63.2275604 C98.5186221,63.2275604 95.3846154,66.3615672 95.3846154,70.2275604 L95.3846154,70.2275604 L95.3846154,114.347536 L120.284881,114.347536 C122.176728,114.347536 123.98802,115.113288 125.306146,116.470354 C127.999739,119.243521 127.935231,123.675207 125.162063,126.3688 L125.162063,126.3688 L68.6464128,181.262766 C65.9301572,183.90108 61.6083044,183.90108 58.8920488,181.262766 L58.8920488,181.262766 L2.37639808,126.3688 C1.01933208,125.050674 0.253580089,123.239382 0.253580089,121.347536 C0.253580089,117.481542 3.38758684,114.347536 7.25358009,114.347536 L7.25358009,114.347536 L32.1538462,114.347536 L32.1538462,7 C32.1538462,3.13400675 35.2878529,-2.84217094e-14 39.1538462,0 L39.1538462,0 Z"></path>
    </g>
</svg>
