<svg width="236px" height="231px" viewBox="0 0 236 231" version="1.1" xmlns="http://www.w3.org/2000/svg" xmlns:xlink="http://www.w3.org/1999/xlink">
    <g id="Page-1" stroke="none" stroke-width="1" fill="none" fill-rule="evenodd">
        <g id="Artboard-Copy" transform="translate(-30.000000, -26.000000)" fill="#d43a3a">
            <g id="icon" transform="translate(18.000000, 16.000000)">
                <path d="M20.503366,97.5847546 L109.661194,119.031872 C115.030867,120.323559 120.430966,117.017698 121.722653,111.648025 C121.906906,110.88207 122,110.097024 122,109.309219 L122,20.1513912 C122,14.6285437 117.522847,10.1513912 112,10.1513912 C109.815701,10.1513912 107.691475,10.8665769 105.951956,12.187651 L16.7941278,79.8983612 C12.3958755,83.2386039 11.5381893,89.5118936 14.878432,93.9101458 C16.2734959,95.7470911 18.2607034,97.045277 20.503366,97.5847546 Z" id="Path"></path>
                <path d="M158.503366,97.5847546 L247.661194,119.031872 C253.030867,120.323559 258.430966,117.017698 259.722653,111.648025 C259.906906,110.88207 260,110.097024 260,109.309219 L260,20.1513912 C260,14.6285437 255.522847,10.1513912 250,10.1513912 C247.815701,10.1513912 245.691475,10.8665769 243.951956,12.187651 L154.794128,79.8983612 C150.395875,83.2386039 149.538189,89.5118936 152.878432,93.9101458 C154.273496,95.7470911 156.260703,97.045277 158.503366,97.5847546 Z" id="Path" transform="translate(199.000000, 61.000000) scale(-1, 1) translate(-199.000000, -61.000000) "></path>
                <path d="M18.5169806,131.843955 L103.915149,237.197628 C107.392866,241.488004 113.69015,242.146795 117.980527,238.669077 C120.313683,236.777854 121.673267,233.938122 121.683505,230.934751 L121.97299,146.009935 C121.988814,141.367737 118.807822,137.325061 114.292157,136.248478 L28.6045034,115.819621 C23.2322252,114.538812 17.8388325,117.855603 16.5580237,123.227882 C15.8379278,126.248282 16.5617397,129.431821 18.5169806,131.843955 Z" id="Path-4"></path>
                <path d="M231.317606,115.838191 L145.68089,136.254904 C141.177615,137.328533 138,141.352784 138,145.982274 L138,230.856605 C138,236.379452 142.477153,240.856605 148,240.856605 C151.009528,240.856605 153.859017,239.501208 155.757975,237.166424 L241.39469,131.875381 C244.879508,127.590769 244.231146,121.292403 239.946535,117.807586 C237.533127,115.844681 234.343667,115.116745 231.317606,115.838191 Z" id="Path-5"></path>
            </g>
        </g>
    </g>
</svg>
