<svg width="10px" height="90px" viewBox="0 0 10 90" version="1.1" xmlns="http://www.w3.org/2000/svg" xmlns:xlink="http://www.w3.org/1999/xlink">
    <!-- Generator: Sketch 43.1 (39012) - http://www.bohemiancoding.com/sketch -->
    <desc>Created with Sketch.</desc>
    <defs></defs>
    <g id="Page-1" stroke="none" stroke-width="1" fill="none" fill-rule="evenodd">
        <g id="iPhone-7-Copy" transform="translate(-343.000000, -553.000000)">
            <g id="Group-2" transform="translate(343.000000, 553.000000)">
                <path d="M-24.0751953,36.4160156 C-24.1640625,34.7548828 -25.421875,33.53125 -27.4042969,33.53125 C-29.5986328,33.53125 -31,34.9941406 -31,37.3457031 C-31,39.7382812 -29.5986328,41.1738281 -27.390625,41.1738281 C-25.4628906,41.1738281 -24.1708984,40.0595703 -24.0683594,38.3300781 L-25.9277344,38.3300781 C-26.0507812,39.1298828 -26.5703125,39.6083984 -27.3701172,39.6083984 C-28.3613281,39.6083984 -28.9765625,38.7880859 -28.9765625,37.3457031 C-28.9765625,35.9306641 -28.3613281,35.0966797 -27.3769531,35.0966797 C-26.5566406,35.0966797 -26.0439453,35.6435547 -25.9277344,36.4160156 L-24.0751953,36.4160156 Z M-15.7412109,41.1738281 C-17.9560547,41.1738281 -19.3710938,39.7519531 -19.3710938,37.3457031 C-19.3710938,34.9736328 -17.9355469,33.53125 -15.7412109,33.53125 C-13.546875,33.53125 -12.1113281,34.9667969 -12.1113281,37.3457031 C-12.1113281,39.7587891 -13.5263672,41.1738281 -15.7412109,41.1738281 Z M-15.7412109,39.6494141 C-14.7636719,39.6494141 -14.1416016,38.8222656 -14.1416016,37.3525391 C-14.1416016,35.8964844 -14.7705078,35.0556641 -15.7412109,35.0556641 C-16.7119141,35.0556641 -17.3476562,35.8964844 -17.3476562,37.3525391 C-17.3476562,38.8222656 -16.7255859,39.6494141 -15.7412109,39.6494141 Z M-7.0859375,41.0166016 L-5.08984375,41.0166016 L-5.08984375,36.8125 C-5.08984375,35.8623047 -4.52246094,35.2060547 -3.62695312,35.2060547 C-2.73144531,35.2060547 -2.28027344,35.7529297 -2.28027344,36.7099609 L-2.28027344,41.0166016 L-0.284179688,41.0166016 L-0.284179688,36.2929688 C-0.284179688,34.5771484 -1.20019531,33.5517578 -2.82714844,33.5517578 C-3.95507812,33.5517578 -4.72753906,34.0849609 -5.1171875,34.9941406 L-5.15820312,34.9941406 L-5.15820312,33.6884766 L-7.0859375,33.6884766 L-7.0859375,41.0166016 Z M5.51367188,32 L5.51367188,33.6884766 L4.48144531,33.6884766 L4.48144531,35.1923828 L5.51367188,35.1923828 L5.51367188,39.0410156 C5.51367188,40.4697266 6.18359375,41.0439453 7.90625,41.0439453 C8.30957031,41.0439453 8.65136719,41.0097656 8.85644531,40.9619141 L8.85644531,39.4921875 C8.73339844,39.5126953 8.54882812,39.5263672 8.37109375,39.5263672 C7.78320312,39.5263672 7.50976562,39.2597656 7.50976562,38.6992188 L7.50976562,35.1923828 L8.86328125,35.1923828 L8.86328125,33.6884766 L7.50976562,33.6884766 L7.50976562,32 L5.51367188,32 Z M16.71875,39.6904297 C17.5869141,39.6904297 18.3046875,39.1230469 18.3046875,38.3300781 L18.3046875,37.796875 L16.7597656,37.8925781 C16.0146484,37.9472656 15.5908203,38.2822266 15.5908203,38.8017578 C15.5908203,39.3486328 16.0419922,39.6904297 16.71875,39.6904297 Z M16.0625,41.1328125 C14.6679688,41.1328125 13.6083984,40.2304688 13.6083984,38.9111328 C13.6083984,37.578125 14.6337891,36.8056641 16.4589844,36.6962891 L18.3046875,36.5869141 L18.3046875,36.1015625 C18.3046875,35.4179688 17.8261719,35.0214844 17.0742188,35.0214844 C16.3291016,35.0214844 15.8574219,35.390625 15.7617188,35.9306641 L13.9365234,35.9306641 C14.0117188,34.5087891 15.2216797,33.53125 17.1630859,33.53125 C19.0429688,33.53125 20.2666016,34.5019531 20.2666016,35.9785156 L20.2666016,41.0166016 L18.3388672,41.0166016 L18.3388672,39.8955078 L18.2978516,39.8955078 C17.8876953,40.6748047 16.9785156,41.1328125 16.0625,41.1328125 Z M32.2099609,36.4160156 C32.1210938,34.7548828 30.8632812,33.53125 28.8808594,33.53125 C26.6865234,33.53125 25.2851562,34.9941406 25.2851562,37.3457031 C25.2851562,39.7382812 26.6865234,41.1738281 28.8945312,41.1738281 C30.8222656,41.1738281 32.1142578,40.0595703 32.2167969,38.3300781 L30.3574219,38.3300781 C30.234375,39.1298828 29.7148438,39.6083984 28.9150391,39.6083984 C27.9238281,39.6083984 27.3085938,38.7880859 27.3085938,37.3457031 C27.3085938,35.9306641 27.9238281,35.0966797 28.9082031,35.0966797 C29.7285156,35.0966797 30.2412109,35.6435547 30.3574219,36.4160156 L32.2099609,36.4160156 Z M37.7138672,32 L37.7138672,33.6884766 L36.6816406,33.6884766 L36.6816406,35.1923828 L37.7138672,35.1923828 L37.7138672,39.0410156 C37.7138672,40.4697266 38.3837891,41.0439453 40.1064453,41.0439453 C40.5097656,41.0439453 40.8515625,41.0097656 41.0566406,40.9619141 L41.0566406,39.4921875 C40.9335938,39.5126953 40.7490234,39.5263672 40.5712891,39.5263672 C39.9833984,39.5263672 39.7099609,39.2597656 39.7099609,38.6992188 L39.7099609,35.1923828 L41.0634766,35.1923828 L41.0634766,33.6884766 L39.7099609,33.6884766 L39.7099609,32 L37.7138672,32 Z" id="contact" fill="#F7F3EF" transform="translate(5.031738, 36.586914) rotate(-90.000000) translate(-5.031738, -36.586914) "></path>
                <circle id="Oval-2" fill="#E22E2E" cx="5.5" cy="85.5" r="4.5"></circle>
            </g>
        </g>
    </g>
</svg>